<?xml version="1.0" encoding="UTF-8"?>
<!DOCTYPE svg PUBLIC "-//W3C//DTD SVG 1.1//EN" "http://www.w3.org/Graphics/SVG/1.1/DTD/svg11.dtd">
<!-- Creator: CorelDRAW 2020 (64-Bit) -->
<svg xmlns="http://www.w3.org/2000/svg" xml:space="preserve" width="50mm" height="66mm" version="1.1" style="shape-rendering:geometricPrecision; text-rendering:geometricPrecision; image-rendering:optimizeQuality; fill-rule:evenodd; clip-rule:evenodd"
viewBox="0 0 5000 6600"
 xmlns:xlink="http://www.w3.org/1999/xlink"
 xmlns:xodm="http://www.corel.com/coreldraw/odm/2003">
 <defs>
  <style type="text/css">
   <![CDATA[
    .fil0 {fill:url(#id0)}
   ]]>
  </style>
  <linearGradient id="id0" gradientUnits="userSpaceOnUse" x1="1256.65" y1="7510.35" x2="-1664.99" y2="5197.81">
   <stop offset="0" style="stop-opacity:1; stop-color:#3C924E"/>
   <stop offset="1" style="stop-opacity:1; stop-color:#53AF52"/>
  </linearGradient>
 </defs>
 <g id="Layer_x0020_1">
  <metadata id="CorelCorpID_0Corel-Layer"/>
  <path class="fil0" d="M4255.57 21.25c-21.75,-7.65 -45.6,3.75 -53.28,25.49l-0.14 0.46 -0.03 0.11c-33.91,114.24 -96.23,219.02 -177.36,307.95 -80.72,89.71 -180.42,162.44 -286.25,224.09 -212.7,123.75 -449.04,206.33 -686.12,281.34 -237.62,74.93 -477.7,144.86 -716.41,222.31 -238.1,78.73 -475.01,167.15 -700.54,284.21 -112.35,59.02 -222.54,123.79 -326.65,198.61 -52.53,37.27 -102.03,76.56 -152.11,119.37 -23.52,20.99 -46.96,40.34 -70.52,62.59 -23.33,22.57 -47.77,44.66 -70.2,67.79 -181.54,182.26 -332.69,400.29 -430,644.78 -47.81,122.36 -82.68,250.77 -100.6,382.35 -15.74,131.71 -17.39,266.1 1.24,398.52 17.26,132.59 54.67,262.55 108.13,385.44 26.42,61.58 57.36,121.26 92.33,178.46 33.75,56.99 88.99,113.84 148.55,124.1 45.96,7.9 83.11,-38.7 101.54,-63.28 1210.37,-1614.75 2611.51,-1273.85 3267.73,-2927 -18.84,47.46 -23.25,119.21 -47.08,204.62 -26.75,92.37 -64.06,203.14 -119.18,324.84 -54.91,121.72 -127.46,254.08 -218.37,390.62 -90.82,136.57 -199.6,277.46 -323.88,418.34 -124.82,140.51 -264.12,281.87 -414.72,421.43 -300.95,279.7 -644.55,553.55 -990.42,827.3 -345.71,274.02 -694.26,548.73 -1002.37,835.89 -153.7,143.82 -297.96,289.87 -424.87,440.1 -127.39,149.64 -238.1,302.72 -326.01,455.69 -88.89,152.18 -154.53,304.04 -197.49,444.87 -43.43,140.71 -65.69,269.3 -75.48,375.84 -3.57,53.85 -7.57,99.87 -7.13,144.01 0.12,21.82 0.24,42.01 0.37,60.54 0.09,9.26 0.21,18.08 0.3,26.49 0.43,7.18 0.82,14.01 1.21,20.46 3.08,51.6 4.74,79.16 4.74,79.16 0.2,2.99 0.48,6.68 0.84,9.69 11.39,101.39 102.84,174.35 204.23,162.95 101.39,-11.41 174.36,-102.84 162.94,-204.25 0,0 -3.07,-27.4 -8.85,-78.8 -0.72,-6.43 -1.48,-13.22 -2.3,-20.39 -0.29,-6.01 -0.6,-12.34 -0.92,-18.98 -0.73,-13.23 -1.51,-27.7 -2.37,-43.34 -2.26,-30.78 -0.72,-70.96 -0.38,-113.42 3.38,-85.92 15.71,-190.38 45.35,-308.46 29.25,-118.08 77.5,-249.41 148.47,-386.98 69.83,-138 162.31,-281.86 273.28,-426.98 110.4,-145.52 240.09,-291.63 380.92,-437.96 14.06,-14.56 28.74,-29.07 43.02,-43.61l10.51 6.45c33.65,19.67 70.83,38.92 106.1,58.25 71.65,36.59 143.56,69.58 218.23,98.38 148.79,57.59 304.66,98.42 463.35,119.34 158.62,21.3 319.9,22.07 478.25,3.02 158.41,-18.74 313.88,-56.65 462.78,-110.37 298.27,-107.63 569.12,-277.26 804.24,-482.74 235.18,-206.09 436.2,-447.8 600.93,-710.93 164.56,-263.31 293.34,-548.53 379.74,-846.32 86.35,-297.6 130.44,-608.16 122.65,-918.37 -7.52,-309.91 -68.3,-619.35 -185.02,-906.63 -116.05,-287.61 -288.05,-550.92 -498.26,-776.53 -4.42,-4.72 -10.14,-8.62 -16.66,-10.91z"/>
 </g>
</svg>
