<svg width="24" height="24" viewBox="0 0 24 24" fill="none" xmlns="http://www.w3.org/2000/svg">
<g clip-path="url(#clip0_16_38)">
<path d="M18.5794 14.9436C17.1799 14.9436 15.9271 15.582 15.0958 16.5827L9.68838 13.5126C9.85654 13.0394 9.94896 12.5306 9.94896 12.0003C9.94896 11.4702 9.85654 10.9614 9.68838 10.4882L15.0954 7.41729C15.9266 8.41832 17.1796 9.05693 18.5792 9.05693C21.0755 9.05693 23.1065 7.02521 23.1065 4.52778C23.1067 2.03109 21.0757 0 18.5794 0C16.0827 0 14.0515 2.03109 14.0515 4.52767C14.0515 5.05792 14.1438 5.56683 14.3121 6.04014L8.90474 9.11112C8.07356 8.11063 6.82083 7.47243 5.42171 7.47243C2.9247 7.47243 0.893188 9.50352 0.893188 12.0002C0.893188 14.4968 2.9247 16.5279 5.42171 16.5279C6.82083 16.5279 8.07346 15.8897 8.90463 14.8893L14.3121 17.9595C14.1438 18.4329 14.0514 18.9419 14.0514 19.4722C14.0514 21.9688 16.0826 23.9999 18.5793 23.9999C21.0756 23.9999 23.1066 21.9687 23.1066 19.4722C23.1067 16.9752 21.0757 14.9436 18.5794 14.9436ZM18.5794 1.5844C20.2021 1.5844 21.5223 2.90473 21.5223 4.52767C21.5223 6.15147 20.2021 7.47243 18.5794 7.47243C16.9563 7.47243 15.6359 6.15147 15.6359 4.52767C15.6359 2.90473 16.9563 1.5844 18.5794 1.5844ZM5.42181 14.9436C3.79844 14.9436 2.47769 13.6232 2.47769 12.0003C2.47769 10.3773 3.79844 9.05693 5.42181 9.05693C7.04455 9.05693 8.36467 10.3773 8.36467 12.0003C8.36467 13.6232 7.04445 14.9436 5.42181 14.9436ZM18.5794 22.4156C16.9563 22.4156 15.6359 21.0952 15.6359 19.4723C15.6359 17.8488 16.9563 16.528 18.5794 16.528C20.2021 16.528 21.5223 17.8488 21.5223 19.4723C21.5223 21.0952 20.2021 22.4156 18.5794 22.4156Z" fill="#035C2C"/>
</g>
<defs>
<clipPath id="clip0_16_38">
<rect width="24" height="24" fill="white"/>
</clipPath>
</defs>
</svg>
