<svg width="40" height="40" viewBox="0 0 40 40" fill="none" xmlns="http://www.w3.org/2000/svg">
<path fill-rule="evenodd" clip-rule="evenodd" d="M20 0C31.0457 0 40 8.95426 40 20C40 31.0457 31.0457 40 20 40C8.95426 40 0 31.0457 0 20C0 8.95426 8.95426 0 20 0ZM29.6263 10.9446L26.0581 28.9348C26.0581 28.9348 25.5591 30.1823 24.1868 29.5833L15.9776 23.1208C15.9776 23.1208 25.1101 14.9118 25.4842 14.5625C25.8585 14.2131 25.7337 14.1384 25.7337 14.1384C25.7585 13.7142 25.06 14.1384 25.06 14.1384L12.9585 21.8235L7.9183 20.1267C7.9183 20.1267 7.14479 19.8522 7.07003 19.2535C6.99515 18.6544 7.94326 18.3302 7.94326 18.3302L27.9796 10.4705C27.9796 10.4705 29.6263 9.74686 29.6263 10.9446ZM19.1098 25.6912L15.8529 28.6606C15.8529 28.6606 15.5983 28.8537 15.3198 28.7327L15.9434 23.217L19.1098 25.6912Z" fill="#1B1F23"/>
</svg>
