<svg width="40" height="40" viewBox="0 0 40 40" fill="none" xmlns="http://www.w3.org/2000/svg">
<path d="M20 0C8.95429 0 0 8.95429 0 20C0 31.0457 8.95429 40 20 40C31.0457 40 40 31.0457 40 20C40 8.95429 31.0457 0 20 0ZM2.56335 21.25H6.85249C6.94792 23.3254 7.26155 25.2242 7.74865 26.9294H3.93731C3.17412 25.1673 2.70596 23.2537 2.56335 21.25ZM26.1698 18.75C26.0758 16.7408 25.8376 14.8376 25.5151 13.0707H29.6124C30.1578 14.7478 30.5322 16.6389 30.6451 18.75H26.1698ZM16.8473 26.9294C16.4945 24.9814 16.3214 23.0799 16.2893 21.25H23.7108C23.6788 23.0799 23.5056 24.9814 23.1527 26.9294H16.8473ZM22.608 29.4294C22.0219 31.6794 21.1735 33.9731 19.9998 36.2717C18.8262 33.9731 17.978 31.6794 17.3919 29.4294H22.608ZM16.3233 18.75C16.4224 16.7293 16.6779 14.8251 17.0171 13.0707H22.9829C23.3222 14.8251 23.5776 16.7293 23.6767 18.75H16.3233ZM17.5789 10.5708C18.3602 7.52106 19.3254 5.11486 19.9998 3.63339C20.6744 5.11486 21.6397 7.52106 22.4211 10.5708H17.5789ZM24.9853 10.5708C24.1878 7.26571 23.1637 4.61078 22.4035 2.89486C23.3482 3.5671 26.4869 6.05184 28.628 10.5708H24.9853ZM17.5962 2.89469C16.836 4.61061 15.8121 7.26563 15.0146 10.5708H11.3715C13.5128 6.05143 16.6518 3.56669 17.5962 2.89469ZM14.4849 13.0708C14.1624 14.8377 13.9243 16.7409 13.8303 18.7501H9.35453C9.46743 16.639 9.84171 14.7478 10.3872 13.0708H14.4849ZM6.85518 18.75H2.56335C2.70596 16.7464 3.17404 14.833 3.93722 13.0707H7.76596C7.27527 14.7757 6.95543 16.6731 6.85518 18.75ZM9.35322 21.25H13.796C13.8244 23.083 13.9786 24.982 14.3055 26.9294H10.3885C9.83845 25.248 9.46286 23.3563 9.35322 21.25ZM14.8232 29.4294C15.4364 31.9749 16.3473 34.5767 17.6594 37.1888C16.774 36.5549 13.5551 34.0229 11.3727 29.4294H14.8232ZM22.3376 37.1944C23.6513 34.5804 24.563 31.9768 25.1768 29.4294H28.6523C26.4764 34.0464 23.2438 36.5573 22.3376 37.1944ZM25.6946 26.9294C26.0216 24.982 26.1758 23.083 26.2041 21.25H30.6477C30.5402 23.3602 30.1706 25.2513 29.6287 26.9294H25.6946ZM33.147 21.25H37.4367C37.294 23.2537 36.8259 25.1672 36.0627 26.9294H32.2509C32.738 25.2242 33.0516 23.3254 33.147 21.25ZM33.1444 18.75C33.0442 16.6731 32.7243 14.7757 32.2336 13.0707H36.0629C36.8261 14.8329 37.2941 16.7463 37.4367 18.75H33.1444ZM34.7191 10.5708H31.3524C30.2349 7.87902 28.7781 5.74971 27.4072 4.16784C30.4061 5.57682 32.9402 7.80376 34.7191 10.5708ZM12.592 4.16816C11.2212 5.75004 9.76457 7.87927 8.64718 10.5708H5.2809C7.05959 7.80392 9.59347 5.57722 12.592 4.16816ZM5.28098 29.4294H8.62686C9.72743 32.0936 11.1637 34.2158 12.525 35.7995C9.55584 34.3887 7.04637 32.1753 5.28098 29.4294ZM27.4756 35.7992C28.8366 34.2157 30.2726 32.0935 31.3729 29.4294H34.719C32.9538 32.1752 30.4445 34.3884 27.4756 35.7992Z" fill="#1B1F23"/>
</svg>
