<svg xmlns="http://www.w3.org/2000/svg" version="1.1" xmlns:xlink="http://www.w3.org/1999/xlink" xmlns:svgjs="http://svgjs.com/svgjs" width="800" height="400" preserveAspectRatio="none" viewBox="0 0 800 400"><g mask="url(&quot;#SvgjsMask1157&quot;)" fill="none"><rect width="800" height="400" x="0" y="0" fill="url(#SvgjsRadialGradient1158)"></rect><path d="M341.1018731041438 179.67435705995592L389.453849016662 71.07404106950912 280.8535330262152 22.722065156990936 232.501557113697 131.32238114743774z" fill="rgba(178, 214, 66, 0.4)" class="triangle-float1"></path><path d="M46.35255403608501 15.418440992508849L-33.38949408994536-6.02984936494035-15.926469120907797 64.01051822273583z" fill="rgba(178, 214, 66, 0.4)" class="triangle-float2"></path><path d="M689.2489289838514 81.21892459035638L707.6541483633611 141.41968459160051 749.4496889850956 62.813705210846784z" fill="rgba(178, 214, 66, 0.4)" class="triangle-float3"></path><path d="M465.1268720047846 165.5126702375145L485.9921926162565 97.26528167997054 417.74480405871253 76.39996106849867 396.87948344724066 144.64734962604263z" fill="rgba(178, 214, 66, 0.4)" class="triangle-float3"></path><path d="M220.61169408780884 47.16783271938684L238.66070999121456-5.250315598627992 151.00897956248946-6.114765294729182z" fill="rgba(178, 214, 66, 0.4)" class="triangle-float1"></path><path d="M441.7694677245599 257.2811269221623L516.160190027955 244.16403546568276 503.04309857147547 169.77331316228765 428.6523762680804 182.89040461876715z" fill="rgba(178, 214, 66, 0.4)" class="triangle-float3"></path><path d="M387.6312425600836 151.98722039834556L457.24206016114255 74.67657520311724 379.9314149659142 5.065757602058284 310.3205973648553 82.3764027972866z" fill="rgba(178, 214, 66, 0.4)" class="triangle-float3"></path><path d="M-2.543,402.841C16.38,402.318,35.378,396.084,45.226,379.917C55.445,363.142,55.671,341.373,44.913,324.939C34.982,309.768,15.561,305.944,-2.543,306.945C-18.704,307.839,-32.474,316.432,-41.703,329.729C-52.833,345.764,-64.333,365.486,-55.117,382.692C-45.62,400.424,-22.65,403.397,-2.543,402.841" fill="rgba(178, 214, 66, 0.4)" class="triangle-float3"></path></g><defs><mask id="SvgjsMask1157"><rect width="800" height="400" fill="#ffffff"></rect></mask><radialGradient cx="50%" cy="50%" r="447.21" gradientUnits="userSpaceOnUse" id="SvgjsRadialGradient1158"><stop stop-color="rgba(0, 118, 106, 1)" offset="0"></stop><stop stop-color="rgba(0, 68, 11, 1)" offset="1"></stop></radialGradient><style>
            @keyframes float1 {
                0%{transform: translate(0, 0)}
                50%{transform: translate(-10px, 0)}
                100%{transform: translate(0, 0)}
            }

            .triangle-float1 {
                animation: float1 5s infinite;
            }

            @keyframes float2 {
                0%{transform: translate(0, 0)}
                50%{transform: translate(-5px, -5px)}
                100%{transform: translate(0, 0)}
            }

            .triangle-float2 {
                animation: float2 4s infinite;
            }

            @keyframes float3 {
                0%{transform: translate(0, 0)}
                50%{transform: translate(0, -10px)}
                100%{transform: translate(0, 0)}
            }

            .triangle-float3 {
                animation: float3 6s infinite;
            }
        </style></defs></svg>